<?xml version="1.0" encoding="iso-8859-1"?>
<!-- Uploaded to: SVG Repo, www.svgrepo.com, Generator: SVG Repo Mixer Tools -->
<svg version="1.1" id="Layer_1" xmlns="http://www.w3.org/2000/svg" xmlns:xlink="http://www.w3.org/1999/xlink" 
	 viewBox="0 0 512 512" xml:space="preserve">
<g>
	<rect x="225.882" y="180.706" style="fill:#BF3C1A;" width="60.235" height="75.294"/>
	<polygon style="fill:#BF3C1A;" points="286.118,60.235 256,75.294 225.882,60.235 256,0 	"/>
</g>
<path style="fill:#FF9811;" d="M391.529,128c0,37.427-30.337,67.765-67.765,67.765H188.235c-37.427,0-67.765-30.337-67.765-67.765
	l0,0c0-37.427,30.338-67.765,67.765-67.765h135.529C361.192,60.235,391.529,90.573,391.529,128L391.529,128z"/>
<path style="fill:#FF5023;" d="M323.765,60.235H256v135.529h67.765c37.427,0,67.765-30.337,67.765-67.765
	S361.192,60.235,323.765,60.235z"/>
<polygon style="fill:#FF9811;" points="135.529,240.941 180.706,346.353 331.294,346.353 376.471,240.941 "/>
<polygon style="fill:#FF5023;" points="256,240.941 256,346.353 331.294,346.353 376.471,240.941 "/>
<rect x="165.647" y="376.471" style="fill:#FF9811;" width="60.235" height="135.529"/>
<rect x="286.118" y="376.471" style="fill:#FF5023;" width="60.235" height="135.529"/>
<g>
	<circle style="fill:#2A2718;" cx="188.235" cy="128" r="22.588"/>
	<circle style="fill:#2A2718;" cx="323.765" cy="128" r="22.588"/>
</g>
<rect x="135.529" y="331.294" style="fill:#FF5023;" width="240.941" height="75.294"/>
<rect x="256" y="331.294" style="fill:#BF3C1A;" width="120.471" height="75.294"/>
</svg>